<svg xmlns="http://www.w3.org/2000/svg" fill="currentColor" viewBox="0 0 24 24">
  <path d="M22.225 0H1.771C.792 0 0 .774 0 1.729v20.542C0 23.226.792 24 1.771 24h20.451C23.2 24 24 23.226 24 22.271V1.729C24 .774 23.2 0 22.225 0zM7.082 20.452H3.542V9h3.54v11.452zM5.312 7.509c-1.132 0-2.05-.923-2.05-2.062 0-1.14.918-2.063 2.05-2.063 1.132 0 2.05.923 2.05 2.063 0 1.139-.918 2.062-2.05 2.062zM20.452 20.452h-3.539v-5.605c0-1.335-.026-3.056-1.862-3.056-1.863 0-2.148 1.455-2.148 2.956v5.705h-3.539V9h3.396v1.561h.048c.474-.899 1.632-1.848 3.362-1.848 3.593 0 4.254 2.364 4.254 5.438v6.301z"></path>
</svg>
